<?xml version="1.0" standalone="no"?>
<!DOCTYPE svg PUBLIC "-//W3C//DTD SVG 20010904//EN"
 "http://www.w3.org/TR/2001/REC-SVG-20010904/DTD/svg10.dtd">
<svg version="1.0" xmlns="http://www.w3.org/2000/svg"
 width="700.000000pt" height="700.000000pt" viewBox="0 0 700.000000 700.000000"
 preserveAspectRatio="xMidYMid meet">
<metadata>
Created by potrace 1.11, written by Peter Selinger 2001-2013
</metadata>
<g transform="translate(0.000000,700.000000) scale(0.100000,-0.100000)"
fill="#000000" stroke="none">
<path d="M6895 6969 c-16 -4 -91 -24 -165 -43 -74 -19 -205 -53 -290 -76 -365
-96 -656 -172 -672 -176 -37 -8 -56 -13 -153 -39 -55 -15 -107 -29 -115 -30
-8 -2 -15 -4 -15 -5 0 -1 -7 -3 -15 -5 -33 -7 -101 -24 -235 -60 -362 -95
-441 -116 -457 -120 -9 -2 -95 -24 -190 -49 -191 -51 -768 -201 -1033 -270
-93 -25 -267 -70 -385 -101 -262 -69 -492 -129 -750 -196 -174 -45 -357 -93
-605 -159 -44 -12 -89 -23 -100 -26 -11 -2 -66 -17 -122 -32 l-103 -28 1008
-1007 1007 -1007 1715 1715 c943 943 1712 1716 1710 1718 -3 2 -18 0 -35 -4z"/>
<path d="M24 6899 c4 -13 8 -31 11 -39 2 -8 29 -112 60 -230 106 -407 137
-525 140 -540 2 -8 13 -51 25 -95 36 -136 117 -443 160 -611 23 -87 73 -278
111 -424 39 -146 88 -335 110 -420 22 -85 49 -189 60 -230 11 -41 22 -83 25
-92 11 -45 14 -57 29 -113 9 -33 36 -136 60 -230 133 -515 235 -904 244 -930
6 -16 12 -41 15 -55 3 -14 14 -61 26 -105 12 -44 35 -132 51 -195 75 -288 273
-1039 283 -1079 l12 -45 1008 1008 1007 1007 -1722 1721 c-947 947 -1719 1710
-1715 1697z"/>
<path d="M4562 4497 c-551 -552 -1002 -1005 -1002 -1008 0 -4 3408 -3415 3435
-3438 2 -2 0 12 -6 30 -10 34 -39 146 -100 377 -58 222 -88 337 -114 437 -15
55 -38 143 -52 195 -14 52 -29 111 -33 130 -8 35 -68 264 -133 510 -20 74 -49
187 -66 250 -16 63 -55 212 -86 330 -31 118 -68 258 -81 310 -14 52 -38 146
-55 208 -65 249 -89 342 -119 457 -17 66 -44 170 -60 230 -16 61 -42 162 -59
225 -16 63 -37 142 -46 175 -9 33 -34 128 -55 210 -21 83 -63 245 -94 360
-157 599 -229 876 -243 930 -8 33 -18 65 -22 72 -4 7 -389 -370 -1009 -990z"/>
<path d="M1790 1725 c-943 -943 -1709 -1715 -1701 -1715 7 0 45 9 84 20 40 11
203 55 362 96 160 41 351 91 425 110 74 20 142 37 150 39 8 2 125 33 260 68
194 52 570 150 660 173 8 2 116 30 240 63 314 83 747 196 1040 272 85 22 178
47 206 55 28 8 60 16 70 18 11 2 72 18 137 36 64 17 126 33 137 35 10 2 53 13
95 25 42 12 84 23 93 25 10 2 130 33 267 69 297 78 554 145 575 150 8 2 96 25
195 51 99 26 235 62 302 79 67 18 125 34 128 37 5 6 -1993 2009 -2004 2009 -3
0 -778 -772 -1721 -1715z"/>
</g>
</svg>
